<?xml version="1.0" encoding="UTF-8"?>
<svg viewBox="0 0 167.24921 207.14981" xmlns="http://www.w3.org/2000/svg">
 <g transform="translate(-72.09 -768.79)" fill-rule="evenodd">
  <path d="m155.59 769.6c-13.698 0-24.812 11.114-24.812 24.812 0 11.298 7.5715 20.816 17.906 23.812v10.156h-3.0625c-2.301 0-4.215 1.595-4.6875 3.75h-32.031c-1.5893-5.8234-5.5216-9.9688-10.125-9.9688-6.0069 0-10.906 7.032-10.906 15.688s4.8993 15.688 10.906 15.688c4.6688 0 8.6437-4.264 10.188-10.219h31.969c0.48255 2.1414 2.3962 3.75 4.6875 3.75h1.125c-3.3922 38.936 0.0289 93.703-11.875 95.219-13.376 1.091-40.054-27.202-38.25-29.312 1.7882-0.89412 7.266-0.61037 8.5625-0.53125l8.125-6.5625-40.406-20.688 2.2812 51.5 0.84375-0.6875c4.024-5.5696 9.219-14.469 9.9688-15.719 3.5193 10.274 11.588 21.256 18.344 30.562 11.364 14.9 42.516 32.046 72.719 20.469 28.712-8.2788 35.267-35.115 48.594-50.781 0.67078 1.1179 4.8901 8.3706 8.6562 13.875l3.0312 2.3438 1.1875-51.562-39.969 21.562 7.3438 5.6875c1.1768-0.0734 6.8096-0.37645 8.625 0.53125 2.9152 4.9342-20.15 22.683-24.594 25.5-17.678 8.5863-19.201 2.0474-20.969-5.7812-1.5572-6.8962-4.3284-69.979-5-85.625h1.5938c2.2913 0 4.205-1.6086 4.6875-3.75h31.969c1.5438 5.9547 5.5187 10.219 10.188 10.219 6.0069 0 10.906-7.032 10.906-15.688s-4.8994-15.688-10.906-15.688c-4.6034 0-8.5357 4.1453-10.125 9.9688h-32.031c-0.47255-2.155-2.3865-3.75-4.6875-3.75h-3.0625v-10.156c10.335-2.9967 17.906-12.515 17.906-23.812 0-13.698-11.114-24.812-24.812-24.812zm0 11c7.6239-1e-5 13.812 6.1886 13.812 13.812s-6.1886 13.812-13.812 13.812-13.812-6.1886-13.812-13.812 6.1886-13.812 13.812-13.812z" fill="#2c416b" stroke="#000" stroke-width="1.6242"/>
  <path transform="translate(72.09 768.79)" d="m83.625,3.625c-2.96805.07847-6.31697.57143-10,1.6875-.35714.35715.35268,2.83036 6.78125.6875s18.5625,2.86161 16.0625.71875c-1.71875-1.47321-6.31404-3.26639-12.84375-3.09375zm4.21875,46.25-.75.09375c-.13088.0178-.22479.60215-.21875,1.28125l.25,7.8125c.006.67911.11913,1.20528.25,1.1875l.71875-.09375c.13086-.0178.22479-.60215.21875-1.28125l-.21875-7.8125c-.006-.6791-.11913-1.20529-.25-1.1875zm-57.09375,6.84375c-2.00893,0-4.34249,1.26233-4.625,1.125-1.74718,3.19152 2.48164,3.875 3.90625,3.875 1.42857,0 2.86161-5 .71875-5zm110.34375,0c-2.14286,0-.74107,5 .6875,5s5.72321-.69197 3.9375-3.90625c0,.35714-2.48214-1.09375-4.625-1.09375zm-47.875,5.125-19.71875.15625c-.7217.006-1.2689.12058-1.25.25v.0625l-.28125.0625c-.12943.0189-.22472.59081-.21875,1.3125l.03125,3.125c.006.72168.12058,1.30015.25,1.28125l.9375-.15625c.12942-.0189.22472-.62206.21875-1.34375l-.03125-3.09375c-.00083-.0999-.02675-.15719-.03125-.25 .18162.0151.34615.03305.5625.03125l19.71875-.15625c.18721-.002.31-.0485.46875-.0625-.0139.16476-.03305.30609-.03125.5l.09375,10.9375c-.22892-.0309-.49956-.0651-.8125-.0625l-3.125.03125c-.7217.006-1.2689.12058-1.25.25l.125.9375c.0189.12943.62206.22472 1.34375.21875l3.09375-.03125c.31321-.003.59307-.05915.8125-.09375 .0203.0257.0407.0655.0625.0625l.875-.125c.13088-.0178.22479-.5709.21875-1.25l-.09375-11.0625c-.006-.67912-.11913-1.20529-.25-1.1875l-.34375.0625-.03125-.1875c-.0189-.12939-.62206-.22472-1.34375-.21875zm34.46875,3.21875-26.75.21875c-.6791.006-1.20529.11913-1.1875.25l.09375.75c.0178.13088.5709.22479 1.25.21875l26.75-.25c.67911-.006 1.20528-.11913 1.1875-.25l-.09375-.71875c-.0178-.13086-.5709-.22479-1.25-.21875zm-62.875.34375-26.71875.25c-.67909.006-1.23654.11913-1.21875.25l.125.71875c.0178.13087.57091.22479 1.25.21875l26.75-.21875c.67911-.006 1.20528-.11914 1.1875-.25l-.09375-.75c-.0178-.13086-.60215-.22478-1.28125-.21875zm23.3125,12.46875c-.07623-.00356-.1385.01776-.21875.03125l-.15625.03125c-.64197.1079-1.15237.72767-1.125,1.40625l3.40625,84.34375c.0274.67858.57678,1.13914 1.21875,1.03125l.15625-.03125c.64198-.1079 1.12112-.72768 1.09375-1.40625l-3.40625-84.34375c-.02397-.59376-.43516-1.03757-.96875-1.0625zm-82.1875,45.59375c-.32433.07319-.61339.25619-.8125.53125-.39822.55012-.25211,1.26794.34375,1.59375l22.625,12.375c.59587.3258 1.41428.14388 1.8125-.40625s.22086-1.26795-.375-1.59375l-22.625-12.375c-.29793-.16291-.64442-.19819-.96875-.125zm153.78125,0c-.16504.02029-.31978.04355-.46875.125l-22.625,12.375c-.59587.32581-.74197,1.04362-.34375,1.59375s1.18537.73206 1.78125.40625l22.625-12.375c.59587-.32581.74197-1.04363.34375-1.59375-.29866-.4126-.81737-.59213-1.3125-.53125z" fill="#fff"/>
 </g>
</svg>
